<?xml version="1.0" encoding="UTF-8" standalone="no"?>
<svg
   class="w-5 h-5 fill-current"
   role="img"
   viewBox="0 0 256 256"
   version="1.1"
   id="svg978"
   sodipodi:docname="mastodon.svg"
   inkscape:version="1.2.2 (b0a84865, 2022-12-01)"
   xml:space="preserve"
   xmlns:inkscape="http://www.inkscape.org/namespaces/inkscape"
   xmlns:sodipodi="http://sodipodi.sourceforge.net/DTD/sodipodi-0.dtd"
   xmlns="http://www.w3.org/2000/svg"
   xmlns:svg="http://www.w3.org/2000/svg"><defs
     id="defs982" /><sodipodi:namedview
     id="namedview980"
     pagecolor="#ffffff"
     bordercolor="#000000"
     borderopacity="0.25"
     inkscape:showpageshadow="2"
     inkscape:pageopacity="0.0"
     inkscape:pagecheckerboard="0"
     inkscape:deskcolor="#d1d1d1"
     showgrid="false"
     inkscape:zoom="2.6074563"
     inkscape:cx="101.43986"
     inkscape:cy="129.82001"
     inkscape:window-width="1471"
     inkscape:window-height="917"
     inkscape:window-x="915"
     inkscape:window-y="272"
     inkscape:window-maximized="0"
     inkscape:current-layer="svg978"
     showguides="true"><sodipodi:guide
       position="125,131"
       orientation="0,1"
       id="guide6945"
       inkscape:locked="false"
       inkscape:label=""
       inkscape:color="rgb(0,134,229)" /><sodipodi:guide
       position="125,131"
       orientation="-1,0"
       id="guide9125"
       inkscape:locked="false"
       inkscape:label=""
       inkscape:color="rgb(0,134,229)" /></sodipodi:namedview><g
     id="g976"
     style="fill:#6b21a8;fill-opacity:1"><path
       d="M 237.0334,0.01825771 H 18.889525 C 8.5795947,-0.0980924 0.12482704,8.1605623 -0.001,18.470607 V 237.52409 c 0.12151905,10.31501 8.5756063,18.58184 18.890525,18.47361 H 237.0334 c 10.33533,0.12812 18.82252,-8.13824 18.9656,-18.47361 V 18.454802 C 255.85162,8.1243898 247.36374,-0.13379287 237.0334,7.9080706e-4"
       id="path974"
       style="fill:#6b21a8;fill-opacity:1"
       sodipodi:nodetypes="ccccccccc" /></g><path
     d="m 233.73581,89.080511 c 0,-49.178578 -32.23424,-63.598223 -32.23424,-63.598223 -31.63214,-14.520837 -115.640491,-14.369056 -146.969076,0 0,0 -32.23929,14.419645 -32.23929,63.598223 0,58.538709 -3.339287,131.244079 53.443766,146.270869 20.496132,5.41368 38.10835,6.57737 52.28008,5.76785 25.70744,-1.41667 40.13215,-9.15773 40.13215,-9.15773 l -0.86012,-18.66965 c 0,0 -18.37114,5.76786 -39.01906,5.11012 -20.44554,-0.70834 -41.994059,-2.2262 -45.348526,-27.32143 a 51.880367,51.880367 0 0 1 -0.455361,-7.03274 c 43.324727,10.5744 80.269367,4.60416 90.439017,3.38988 28.39404,-3.38988 53.12501,-20.89585 56.27708,-36.88394 4.95834,-25.19643 4.55358,-61.473229 4.55358,-61.473229 z M 195.72866,152.42576 H 172.1361 V 94.645989 c 0,-25.145838 -32.38096,-26.107144 -32.38096,3.491073 V 129.75909 H 116.31437 V 98.132002 c 0,-29.598218 -32.380971,-28.636912 -32.380971,-3.491072 v 57.77978 H 60.290237 c 0,-61.776803 -2.630952,-74.830382 9.314584,-88.541687 13.104171,-14.622027 40.385139,-15.583341 52.533059,3.086305 l 5.86905,9.866075 5.86905,-9.866075 c 12.19851,-18.770836 39.525,-17.607142 52.53303,-3.086305 11.99614,13.812496 9.30953,26.815475 9.30953,88.541687 z"
     id="path415"
     style="fill:#ffffff;fill-opacity:1;stroke-width:0.505953" /></svg>
