<?xml version="1.0" encoding="UTF-8" standalone="no"?>
<svg
   class="w-5 h-5 fill-current"
   role="img"
   viewBox="0 0 256 256"
   version="1.1"
   id="svg978"
   sodipodi:docname="telegram.svg"
   inkscape:version="1.2.2 (b0a84865, 2022-12-01)"
   xml:space="preserve"
   xmlns:inkscape="http://www.inkscape.org/namespaces/inkscape"
   xmlns:sodipodi="http://sodipodi.sourceforge.net/DTD/sodipodi-0.dtd"
   xmlns="http://www.w3.org/2000/svg"
   xmlns:svg="http://www.w3.org/2000/svg"><defs
     id="defs982" /><sodipodi:namedview
     id="namedview980"
     pagecolor="#ffffff"
     bordercolor="#000000"
     borderopacity="0.25"
     inkscape:showpageshadow="2"
     inkscape:pageopacity="0.0"
     inkscape:pagecheckerboard="0"
     inkscape:deskcolor="#d1d1d1"
     showgrid="false"
     inkscape:zoom="2.6074563"
     inkscape:cx="101.43986"
     inkscape:cy="129.82001"
     inkscape:window-width="1471"
     inkscape:window-height="917"
     inkscape:window-x="915"
     inkscape:window-y="272"
     inkscape:window-maximized="0"
     inkscape:current-layer="svg978"
     showguides="true"><sodipodi:guide
       position="125,131"
       orientation="0,1"
       id="guide6945"
       inkscape:locked="false"
       inkscape:label=""
       inkscape:color="rgb(0,134,229)" /><sodipodi:guide
       position="125,131"
       orientation="-1,0"
       id="guide9125"
       inkscape:locked="false"
       inkscape:label=""
       inkscape:color="rgb(0,134,229)" /></sodipodi:namedview><g
     id="g976"
     style="fill:#3b82f6;fill-opacity:1"><path
       d="M 237.0334,0.01825771 H 18.889525 C 8.5795947,-0.0980924 0.12482704,8.1605623 -0.001,18.470607 V 237.52409 c 0.12151905,10.31501 8.5756063,18.58184 18.890525,18.47361 H 237.0334 c 10.33533,0.12812 18.82252,-8.13824 18.9656,-18.47361 V 18.454802 C 255.85162,8.1243898 247.36374,-0.13379287 237.0334,7.9080706e-4"
       id="path974"
       style="fill:#3b82f6;fill-opacity:1"
       sodipodi:nodetypes="ccccccccc" /></g><path
     d="M 127.99999,16.14801 C 66.225682,16.14801 16.148018,66.225672 16.148018,128 c 0,61.77431 50.077664,111.85199 111.851972,111.85199 61.77432,0 111.85199,-50.07768 111.85199,-111.85199 0,-61.774328 -50.07767,-111.85199 -111.85199,-111.85199 z m 51.8452,76.068374 c -1.68319,17.686596 -8.96664,60.606626 -12.67355,80.416146 -1.56773,8.38169 -4.6554,11.19242 -7.64382,11.4671 -6.49462,0.59804 -11.42785,-4.29232 -17.71907,-8.41642 -9.84432,-6.45312 -15.4058,-10.47033 -24.96194,-16.76743 -11.04312,-7.27714 -3.88413,-11.27538 2.40933,-17.81512 1.64712,-1.7107 30.26634,-27.742 30.82019,-30.10352 0.0689,-0.29541 0.13531,-1.39815 -0.52047,-1.97725 -0.65578,-0.57912 -1.61915,-0.38291 -2.31597,-0.22551 q -1.48069,0.33646 -47.17989,31.18415 -6.695323,4.59766 -12.129621,4.48039 c -3.993741,-0.0862 -11.675903,-2.25779 -17.387115,-4.1146 -7.004733,-2.27674 -12.572078,-3.4805 -12.087235,-7.34751 q 0.378854,-3.02183 8.321251,-6.17892 48.91087,-21.30962 65.22953,-28.098308 c 31.06238,-12.920261 37.51688,-15.164514 41.72397,-15.239389 0.92547,-0.0154 2.99429,0.213788 4.33424,1.301187 a 4.7140199,4.7140199 0 0 1 1.5921,3.02902 19.738717,19.738717 0 0 1 0.18807,4.405984 z"
     id="path6212"
     style="fill:#ffffff;fill-opacity:1;stroke-width:0.451016" /></svg>
